:SAMPLES-PER-SECOND 30
:FULLY-SPECIFIED
:DEGREES
290
root  -18.4269 27.3291 -18.3225 24.391 13.3428 -2.85667
RightUpLeg  -43.4457 1.45116 -18.0529
RightLeg  65.6161 -3.08756 -5.89051
RightFoot  -25.4429 0.782985 3.84498
RightToes  -35.3877 -0.182726 -0.287614
Spine  15.977 -1.49037 0.498591
Spine1  27.2529 -3.82443 3.84145
HEad  4.04624 10.0094 0.666538
LeftShoulder1  0 -2.42657e-020 -4.95415e-022
LeftArm  -29.5604 -18.706 -80.1532
LeftForeArm  -169.267 -39.1945 -7.77152
LeftHand  11.8467 -23.4343 -53.5355
RightShoulder  0 2.42657e-020 1.07489e-018
RightArm  -8.89574 11.5216 73.0302
RightForeArm  88.8406 66.1184 23.4056
RightHand  -8.48865 19.7211 -45.884
LeftUpLeg  -72.5869 10.9982 11.0097
LeftLeg  66.5932 -1.70369 -3.34031
LeftFoot  -2.62429 -0.00921866 -0.402476
LeftToes  -36.0367 1.18758e-006 1.19596e-007
291
root  -17.9459 27.0038 -18.294 26.2605 13.7222 -3.18556
RightUpLeg  -46.7148 2.19885 -20.2661
RightLeg  63.8742 -4.33504 -7.62284
RightFoot  -26.3574 1.10866 5.10986
RightToes  -33.8066 -0.170993 -0.277533
Spine  16.8442 0.911636 1.43295
Spine1  28.5191 2.5914 2.79685
HEad  3.35143 6.3559 2.49023
LeftShoulder1  0 -2.42657e-020 -4.95415e-022
LeftArm  -26.3653 -22.5201 -84.525
LeftForeArm  -169.191 -39.4288 -7.83976
LeftHand  11.8672 -23.5997 -53.2838
RightShoulder  0 2.42657e-020 1.07489e-018
RightArm  -13.9611 20.4138 70.0213
RightForeArm  77.1958 49.1642 11.6851
RightHand  -8.19946 20.8232 -42.262
LeftUpLeg  -76.2605 10.4027 10.6762
LeftLeg  69.7193 -1.27136 -2.87357
LeftFoot  -3.76693 -0.0129263 -0.393088
LeftToes  -35.473 1.18758e-006 1.19596e-007
292
root  -17.6225 26.4609 -18.1361 27.5905 14.3038 -3.72839
RightUpLeg  -49.4112 3.54811 -22.5514
RightLeg  62.6137 -3.80342 -6.38244
RightFoot  -21.5962 0.737097 4.24097
RightToes  -42.6916 -0.240334 -0.329817
Spine  17.674 2.99762 2.77132
Spine1  29.9216 8.17423 2.57918
HEad  2.51732 3.21714 3.6782
LeftShoulder1  0 -2.42657e-020 -4.95415e-022
LeftArm  -22.5347 -24.8722 -88.5242
LeftForeArm  -170.622 -39.8058 -7.95212
LeftHand  11.9105 -23.7024 -53.2473
RightShoulder  0 2.42657e-020 1.07489e-018
RightArm  -24.7834 28.4929 66.907
RightForeArm  69.7021 33.3408 6.58526
RightHand  -6.38913 21.1639 -32.907
LeftUpLeg  -79.3277 9.53338 11.5621
LeftLeg  73.2035 -0.955584 -2.57553
LeftFoot  -6.24837 -0.0260351 -0.477002
LeftToes  -35.0956 1.18758e-006 1.19596e-007
293
root  -17.373 25.7343 -17.8156 27.797 15.6842 -3.79244
RightUpLeg  -48.4363 4.04808 -24.5615
RightLeg  62.9812 -2.66684 -4.58445
RightFoot  -22.1995 0.641924 3.6488
RightToes  -55.8733 -0.356012 -0.386194
Spine  18.1197 3.85254 4.1882
Spine1  30.861 10.8208 3.44046
HEad  2.24726 0.453301 4.46072
LeftShoulder1  0 -2.42657e-020 -4.95415e-022
LeftArm  -18.7292 -25.4101 -89.8383
LeftForeArm  -170.447 -40.0632 -8.02839
LeftHand  11.9826 -23.718 -53.4944
RightShoulder  0 2.42657e-020 1.07489e-018
RightArm  -50.1726 35.7787 62.7403
RightForeArm  55.9045 15.3878 2.74207
RightHand  -3.11127 16.9802 -20.2597
LeftUpLeg  -81.5619 8.22854 12.2607
LeftLeg  77.2616 -0.790114 -2.7025
LeftFoot  -9.43562 -0.0486688 -0.589729
LeftToes  -34.1458 1.18758e-006 1.19596e-007
294
root  -16.9744 25.1256 -17.3233 25.9752 17.3542 -4.51949
RightUpLeg  -42.8977 2.24205 -23.8411
RightLeg  59.6149 -1.82496 -2.78118
RightFoot  -27.147 0.605743 2.88617
RightToes  -57.2486 -0.368756 -0.390509
Spine  18.0131 3.40063 5.64448
Spine1  30.9693 9.48188 6.15128
HEad  3.44501 -1.20794 4.36424
LeftShoulder1  0 -2.42657e-020 -4.95415e-022
LeftArm  -15.8966 -23.9803 -88.4618
LeftForeArm  -169.442 -40.3431 -8.11121
LeftHand  11.7866 -23.6127 -52.945
RightShoulder  0 2.42657e-020 1.07489e-018
RightArm  -85.9553 35.5647 56.778
RightForeArm  44.8926 6.77376 1.18621
RightHand  -1.98047 15.858 -13.7843
LeftUpLeg  -81.7955 6.39435 13.568
LeftLeg  81.4021 -0.560027 -2.6028
LeftFoot  -12.488 -0.0812906 -0.742977
LeftToes  -32.4262 1.18758e-006 1.19596e-007
